GIL01_fast5_RRA_states
nRows=4
nColumns=47

# SIMM Motion File Header:
name GIL01_fast5_RRA_states
datacolumns 47
datarows 4
otherdata 1
range 0.51483000000000023000 0.51633000000000029000
endheader
time	pelvis_tx	pelvis_ty	pelvis_tz	pelvis_tilt	pelvis_list	pelvis_rotation	hip_flexion_r	hip_adduction_r	hip_rotation_r	knee_angle_r	ankle_angle_r	subtalar_angle_r	mtp_angle_r	hip_flexion_l	hip_adduction_l	hip_rotation_l	knee_angle_l	ankle_angle_l	subtalar_angle_l	mtp_angle_l	lumbar_extension	lumbar_bending	lumbar_rotation	pelvis_tx_u	pelvis_ty_u	pelvis_tz_u	pelvis_tilt_u	pelvis_list_u	pelvis_rotation_u	hip_flexion_r_u	hip_adduction_r_u	hip_rotation_r_u	knee_angle_r_u	ankle_angle_r_u	subtalar_angle_r_u	mtp_angle_r_u	hip_flexion_l_u	hip_adduction_l_u	hip_rotation_l_u	knee_angle_l_u	ankle_angle_l_u	subtalar_angle_l_u	mtp_angle_l_u	lumbar_extension_u	lumbar_bending_u	lumbar_rotation_u
      0.51483000000000023000	      1.08682764667428680000	      0.76456555636353229000	     -0.21528115285570643000	     -6.78476304574315140000	      3.41843728103739770000	     -5.56276201848973260000	    -16.72209468065533900000	      1.01288628271929150000	     -3.65823212619643150000	     -8.69926874766280810000	      5.55695067878588670000	      0.00000000000008495010	     -0.00000000000050222552	     32.09749991649755400000	      2.01316820277592350000	     -3.21080813519996420000	     -6.02902037932122870000	     -9.32264262197874060000	     -0.00000000000001822207	      0.00000000000000235195	      4.82011709850794380000	     -6.82982042392607450000	      8.39245631646824640000	      1.65002521886928010000	     -0.06705528943261433700	     -0.09850589291192754500	     -4.85001057577020230000	     33.28519752593621900000	     57.16531359543789400000	    -15.79501837607344700000	    -47.25599997729987200000	    -23.35881306535637600000	   -150.08082176388425000000	   -199.60479939058558000000	     -0.00000000000035828141	     -0.00000000000206048845	     48.31173733418533800000	     84.93223628792158300000	    126.64468559244226000000	   -259.95310066398696000000	    -98.83603763203107900000	     -0.00000000000006200184	      0.00000000000018195356	     33.17232306460845600000	    -55.49936675352544300000	     -7.59087272480561910000
      0.51533000000000029000	      1.08765278839715670000	      0.76453283008168926000	     -0.21533058610722028000	     -6.78710006303790080000	      3.43510395682484050000	     -5.53408247175668770000	    -16.72983420284730000000	      0.98922642997012833000	     -3.66993986466248550000	     -8.77458665869644430000	      5.45620228480153460000	      0.00000000000008476409	     -0.00000000000050325781	     32.12151620447343700000	      2.05572005819494440000	     -3.14727648305464800000	     -6.15913065200415220000	     -9.37154689921014850000	     -0.00000000000001825470	      0.00000000000000244456	      4.83659278441041000000	     -6.85762322071493370000	      8.38863198059462260000	      1.65053804339039930000	     -0.06384854782878421300	     -0.09922752416927010900	     -4.49636434499184730000	     33.38136044695361400000	     57.55219891963133000000	    -15.16330535711334400000	    -47.38446921461179800000	    -23.47248730634342100000	   -151.19172104222770000000	   -203.39954676161705000000	     -0.00000000000034577154	     -0.00000000000212882839	     47.74928093996976500000	     85.27521304882449700000	    127.48038239997332000000	   -260.48278258789134000000	    -96.77027066772532700000	     -0.00000000000007167167	      0.00000000000019680258	     32.72779348583960500000	    -55.71135334011024300000	     -7.70646242701668350000
      0.51583000000000023000	      1.08847818105694530000	      0.76450170895601377000	     -0.21538038082396707000	     -6.78925780229896250000	      3.45181855193668510000	     -5.50521041935982320000	    -16.73725808544666900000	      0.96550074625566684000	     -3.68170497954202560000	     -8.85046152204720290000	      5.35354205116045990000	      0.00000000000008460019	     -0.00000000000050432616	     32.14524519096108400000	      2.09844349835217740000	     -3.08332928700548290000	     -6.28949800132432650000	     -9.41940461275111570000	     -0.00000000000001829092	      0.00000000000000254178	      4.85284235621238040000	     -6.88553138172729890000	      8.38474977708651540000	      1.65102890331152510000	     -0.06063496719134011500	     -0.09995181900482536000	     -4.13307125350335270000	     33.47698643184650500000	     57.93548516270189500000	    -14.53219074784770700000	    -47.51934240981066900000	    -23.58835789865923600000	   -152.30893916719199000000	   -207.24877775076493000000	     -0.00000000000034126958	     -0.00000000000215605526	     47.16278355828450200000	     85.61868497890542100000	    128.30687652959773000000	   -260.98148499416368000000	    -94.65482587023110700000	     -0.00000000000007330840	      0.00000000000019501473	     32.26804908661183900000	    -55.92096721937717500000	     -7.82251378153379130000
      0.51633000000000029000	      1.08930381367365920000	      0.76447219608726791000	     -0.21543053830256653000	     -6.79123155643145180000	      3.46858084343973030000	     -5.47614761908891090000	    -16.74436644572844200000	      0.94170602674076564000	     -3.69352857866322900000	     -8.92689666586409560000	      5.24894453941472430000	      0.00000000000008443013	     -0.00000000000050538687	     32.16867500496660200000	      2.14133878541773550000	     -3.01897120289245360000	     -6.42010693121343760000	     -9.46619358488365140000	     -0.00000000000001832530	      0.00000000000000263718	      4.86885833656792850000	     -6.91354377128617510000	      8.38080940513598090000	      1.65149800230101770000	     -0.05741555269271795400	     -0.10067837044732815000	     -3.76031084902776370000	     33.57201411479335500000	     58.31497573071509800000	    -13.90139035364725500000	    -47.66058131354762400000	    -23.70636499571665100000	   -153.43256264973448000000	   -211.15181437586725000000	     -0.00000000000033799784	     -0.00000000000212889926	     46.55238559814534900000	     85.96241012294621000000	    129.12379469216751000000	   -261.44893806699588000000	    -92.49053878683219000000	     -0.00000000000007252283	      0.00000000000020186923	     31.79332331314822800000	    -56.12808174758821200000	     -7.93893489896009810000
